<?xml version="1.0" standalone="no"?>
<!DOCTYPE svg PUBLIC "-//W3C//DTD SVG 20010904//EN"
 "http://www.w3.org/TR/2001/REC-SVG-20010904/DTD/svg10.dtd">
<svg version="1.0" xmlns="http://www.w3.org/2000/svg"
 width="700.000000pt" height="700.000000pt" viewBox="0 0 700.000000 700.000000"
 preserveAspectRatio="xMidYMid meet">
<metadata>
Created by potrace 1.11, written by Peter Selinger 2001-2013
</metadata>
<g transform="translate(0.000000,700.000000) scale(0.100000,-0.100000)"
fill="#000000" stroke="none">
<path d="M3285 6994 c-22 -2 -89 -9 -150 -14 -726 -69 -1456 -398 -1995 -898
-645 -598 -1014 -1328 -1122 -2217 -16 -135 -16 -591 0 -730 83 -698 334
-1304 761 -1835 95 -119 317 -348 436 -450 486 -416 1080 -697 1695 -799 229
-38 322 -45 590 -45 402 0 720 48 1077 164 707 229 1338 692 1771 1297 349
488 561 1045 634 1668 7 62 13 220 13 365 0 258 -10 376 -46 590 -97 575 -350
1138 -716 1595 -110 139 -358 392 -486 498 -540 448 -1169 716 -1867 797 -97
11 -522 21 -595 14z m1039 -2202 c131 -169 230 -300 220 -291 -10 8 -46 38
-79 66 -193 163 -454 283 -715 329 -127 23 -362 23 -495 0 -272 -46 -547 -175
-743 -350 -34 -31 -65 -56 -67 -56 -3 0 102 137 233 305 l237 305 585 0 585 0
239 -308z m-634 -77 c494 -75 907 -419 1064 -888 49 -149 61 -229 61 -417 0
-131 -5 -196 -18 -260 -101 -470 -427 -841 -870 -990 -451 -152 -950 -54
-1296 256 -225 201 -365 441 -428 737 -25 117 -25 399 1 517 134 618 663 1054
1286 1059 58 0 148 -6 200 -14z m-1437 -462 c-121 -181 -201 -378 -239 -588
-26 -148 -24 -386 4 -532 68 -345 247 -654 505 -870 107 -91 161 -127 282
-190 l100 -52 -867 -1 -868 0 0 1165 0 1165 574 0 574 0 -65 -97z m3577 -1068
l0 -1165 -867 0 -868 0 90 47 c235 120 428 292 571 508 349 525 333 1209 -39
1723 l-38 52 576 0 575 0 0 -1165z"/>
<path d="M3310 4366 c-192 -41 -345 -122 -487 -259 -214 -207 -316 -481 -291
-787 36 -456 397 -824 863 -880 393 -47 786 164 969 520 81 158 110 281 109
460 -2 250 -90 470 -263 654 -126 134 -285 231 -455 277 -102 27 -346 36 -445
15z"/>
</g>
</svg>
